<svg id="a" xmlns="http://www.w3.org/2000/svg" viewBox="0 0 540 540"><rect x="163.13" y="57.55" width="22.72" height="22.72"/><rect x="354.15" y="57.55" width="22.72" height="22.72"/><path d="M355.04,199.02c-6.52-41.54-42.87-72.72-85.04-72.72s-78.53,31.18-85.04,72.72h-21.22c6.65-53.54,52.07-93.72,106.26-93.72s99.6,40.18,106.26,93.72h-21.22Z"/><path d="M302.89,365.69v21h70.5l-46.34-80.26,.97-4,.92-.62c24.51-16.2,41.4-41.86,46.49-70.59h-21.43c-4.72,21.13-17.15,39.55-35.11,52l-1.01,.7-4.41-1.01-30.24-52.37,2.83-4.91h63.34c.73-4.38,1.11-8.82,1.11-13.22,0-2.52-.14-5.12-.41-7.78H189.9c-.27,2.66-.41,5.26-.41,7.78,0,4.4,.38,8.83,1.11,13.22h63.34l2.83,4.91-30.24,52.37-4.41,1.01-1.01-.7c-17.96-12.45-30.39-30.87-35.11-52h-21.43c5.11,28.73,21.98,54.39,46.49,70.59l.92,.62,.97,4-46.34,80.26h70.25v-21h-28.22l-2.83-4.9,26.33-45.6,3.5-1.33,.94,.31c5.98,1.96,12.18,3.4,18.45,4.27l1.04,.15,2.58,2.94v94.32l5.56,5.56v4.3l-15.92,15.95h-4.3l-5.57-5.57h-27.52v22.72h27.52l5.57-5.56h4.31l15.9,15.93v4.3l-5.56,5.56v27.52h22.72v-27.52l-5.56-5.56v-4.3l15.9-15.93h4.31l5.57,5.56h27.52v-22.72h-27.52l-5.57,5.57h-4.3l-15.92-15.95v-4.3l5.56-5.56v-94.3l2.59-2.95,1.02-.15c6.27-.87,12.47-2.31,18.45-4.27l.94-.31,3.5,1.33,26.33,45.6-2.83,4.9h-28.48Zm-10.92-70.01l-1.37,.34c-6.72,1.65-13.65,2.49-20.59,2.49s-13.89-.84-20.61-2.49l-1.37-.34-1.95-4.65,21.1-36.53h5.66l21.08,36.53-1.95,4.65Z"/></svg>